<?xml version="1.0" encoding="UTF-8"?>
<svg id="Layer_2" data-name="Layer 2" xmlns="http://www.w3.org/2000/svg" viewBox="0 0 383 463.87">
  <defs>
    <style>
      .cls-1 {
        fill: #fff;
      }

      .cls-2 {
        fill: #00754a;
      }

      .cls-3 {
        fill: #ffc629;
      }

      .cls-4 {
        fill: #124734;
      }
    </style>
  </defs>
  <g id="BK">
    <g id="BK_TRANSPARENT" data-name="BK TRANSPARENT">
      <g>
        <path d="M358.05,364.05h24.76v-28.34l-11.27-11.27h-7.86c2.29-6.82,6.34-23.15,1.91-28.25-3.05-3.51-8.75-1.55-21.48,2.64-10.95,3.59-38.62,11.95-59.11,11.95-16.1,0-20.48-4.42-30.89-17.29,5.58-5.24,10.8-10.8,15.5-16.76,6.56-1.56,9.67-1.81,15.85-2.09l1.05-.05-.94-20.07-1.79.08c10.73-21.34,14.79-43.74,14.79-67.53v-84.72l17.43-23.57c16.52,4.87,27.43,8.92,41.25,14.3-2.26-8.26-5.45-20.05-10.98-36.49l-.05-.14.12-.08c14.17-8.8,25.15-14.75,32.42-18.69l1.26-.68C315.42,11.89,255.23.18,190.62.18,125.98.19,65.78,11.89,1.19,37.02l1.31.71c11.84,6.42,20.24,11.16,32.48,18.73-4.84,14.53-7.18,22.6-11.02,36.62l1.22-.48c14.65-5.71,25.58-9.59,41.51-14.26.12.17,17.62,23.84,17.75,24v84.72c0,23.79,4.06,46.19,14.79,67.53l-1.79-.08-.94,20.07c4.83.23,9.26.26,16.91,2.14,4.69,5.95,9.93,11.53,15.5,16.75-10.41,12.86-14.79,17.29-30.89,17.29-9.96,0-23.19-2.07-40.43-6.32-21.91-5.4-35.46-13.69-40.17-8.26-4.48,5.16-.28,21.78,1.92,28.27H.18v139.23h24.76v-39.26l14.12,39.25h46.86s0-27.64,0-27.64l10.51,27.65h48.05s0-10.59,0-10.59l10.59,10.59h36.7l10.59-10.59v10.59h24.76v-44.44h9.72v44.44h24.76v-86.09h17.14v86.09h24.76v-86.09h17.14v16.17c1.53,1.53,9.72,9.72,11.27,11.27h26.13v33.86h-12.64v-17.77h-24.76v31.26l11.27,11.27h39.62l11.27-11.27v-60.84c-1.52-1.52-9.75-9.75-11.27-11.27h-26.13v-31.06h12.64v14.85ZM293.77,72.85c-1.25,1.71-9.44,12.87-9.44,12.87h-26.16c-.06-.55-1.71-16.96-2.03-20.17,12.58,1.88,25.09,4.31,37.64,7.3ZM124.84,85.72h-26.16s-8.8-11.98-9.71-13.23c12.26-2.87,24.46-5.24,37.93-7.21l-2.06,20.44ZM24.95,352.84v-19.15c1.93,1.06,3.93,1.71,6.17,2.36l-6.17,16.8ZM202.36,400.4h-28.75v24.76h4.67v13.74h-9.72v-61.33h9.72v14.76h24.08v8.06ZM320.65,352.82h-83.82v41.65h-9.72v-41.65h-24.76v10.59l-10.59-10.59h-36.7l-10.59,10.59v-10.54h-24.08v-.05h-24.76v27.64l-10.51-27.64h-23.97v99.16l-22.93-61.14c.04-.1,17.53-49.75,17.56-49.85,19.99,3.21,43.56,7.8,62.96-3.15,10.28-5.8,14-11.66,27.58-29.9,14.67,10.84,28.99,19.13,45.17,27.83,16.32-8.77,30.63-17.09,45.17-27.83,13.55,18.19,16.9,23.97,27.51,29.86,18.56,10.3,38.9,6.77,56.47,4.19v10.82Z"/>
        <g>
          <path class="cls-3" d="M86.39,38.78s.05-.07.07-.11c.25-.43.35-.96.33-1.51-.01-.24-.05-.51-.11-.79-.06-.28-.14-.54-.24-.78-1.05-2.4-3.28-1.64-6.07-.97.59,2.46.89,3.68,1.48,6.14,1.45-.35,3.72-.73,4.54-1.98ZM89.49,46.16c-.03-.12-.06-.24-.09-.36-.01-.04-.03-.08-.04-.13-.02-.07-.04-.14-.06-.2-.02-.05-.04-.1-.06-.15-.02-.05-.04-.1-.06-.15-.02-.06-.05-.11-.08-.16-.02-.04-.03-.08-.05-.11-.03-.06-.07-.13-.11-.19-.01-.02-.02-.04-.03-.06-.05-.07-.09-.14-.14-.21,0,0,0,0,0,0-1.36-1.81-3.91-.92-6.12-.39.68,2.82,1.02,4.24,1.7,7.06,1-.24,1.89-.41,2.67-.67.03-.01.06-.02.09-.04.16-.06.32-.11.47-.18.13-.06.26-.13.38-.19.05-.03.1-.05.14-.07.15-.09.29-.19.43-.29.02-.01.04-.02.06-.04.16-.12.3-.26.44-.41.63-.67.79-1.69.48-3.05ZM135.46,57.41c27.57-12.13,84.49-12.14,112.09,0,17.47,2.19,35.24,5.46,53.43,10.01,5.58-7.61,8.52-11.62,16.45-22.46l12.92,9.57c-.22.3-12.71,17.19-12.83,17.36,10.3,3.01,20.23,6.25,30.45,10-2.84-9.53-5.91-18.96-9.22-28.34,8.4-5.51,17.01-10.72,25.77-15.66-112.07-41.31-233.94-41.31-346,0,8.76,4.92,17.35,10.16,25.77,15.66-3.31,9.38-6.38,18.81-9.22,28.34,10.23-3.76,20.29-7.04,30.45-10-.12-.17-12.61-17.06-12.83-17.36l12.92-9.57c6.57,8.97,9.62,13.15,16.45,22.46,17.63-4.41,35.45-7.75,53.43-10.01ZM292.16,28.56c5.53,1.22,11.02,2.51,16.52,3.86-.39,1.55-.58,2.32-.97,3.86-2.23-.56-3.35-.84-5.59-1.37-1.56,6.53-3.12,13.05-4.69,19.58-1.98-.47-2.97-.71-4.95-1.16,1.49-6.54,2.98-13.09,4.47-19.63-2.24-.51-3.37-.76-5.61-1.24.33-1.56.5-2.34.84-3.9ZM260.52,22.87c10.81,1.57,7.96,1.22,9.74,1.52,8.27,1.38,6.24,8.85,4.14,10.99-.95.97-2.24,1.4-3.61,1.43,0,.03,0,.04-.01.07,5.09,1.62,2.68,5.74,2.47,10.45,0,.15,0,.3-.01.45,0,.67.24,1.2.65,1.53l-.04.2c-2.16-.4-3.25-.59-5.41-.96-.74-1.41.12-4.22.38-6.58.45-4.1-1.26-3.93-5.19-4.55-.63,4.03-.95,6.05-1.58,10.08-2-.31-3.01-.47-5.01-.76,1.16-7.95,2.32-15.91,3.47-23.86ZM227.59,32.03c.59-8.54,2.26-13.69,10.95-12.29,7.46,1.19,7.52,7.05,6.31,15.06-1.09,7.24-3.42,11-11.18,9.44-6.02-1.21-6.51-5.9-6.08-12.21ZM199.72,17.94c4.91.08,9.84.24,14.74.48-.08,1.59-.11,2.39-.19,3.98-3.74-.18-5.61-.25-9.34-.36-.06,2.27-.1,3.4-.16,5.67,3.48.1,5.21.16,8.69.33-.07,1.59-.11,2.39-.19,3.98-3.44-.16-5.17-.23-8.61-.32-.12,4.19-.18,6.28-.3,10.47-2.02-.06-3.03-.08-5.05-.11.14-8.04.28-16.07.41-24.11ZM174.05,18.19c.19,5.25.38,10.51.57,15.76.03.81.06,1.33.08,1.68.14,1.44.58,2.32,1.13,2.83.52.45,1.17.65,1.82.66.36,0,.7-.07.98-.15.63-.2,1.18-.6,1.49-1.15.07-.11.12-.22.17-.33.17-.48.27-1.16.32-2.14.05-2.18-.12-6.71-.37-17.34,2.13-.05,3.19-.07,5.32-.1.17,13.58.33,17.27.04,19.12,0,.03,0,.05-.01.07,0,.04-.02.09-.02.13-.1.5-.23.86-.42,1.3-.11.25-.23.49-.35.71-.05.09-.11.17-.16.25-.08.13-.16.26-.25.38-.07.1-.15.18-.22.27-.08.1-.16.2-.24.29-.08.09-.17.16-.26.24-.09.08-.17.17-.26.25-.09.08-.19.14-.29.21-.09.07-.18.14-.28.2-.11.07-.22.12-.33.19-.1.05-.19.11-.29.16-.13.06-.26.11-.39.16-.09.04-.18.08-.27.11-.23.08-.46.15-.7.2-.95.23-1.94.35-2.97.38-4.41.13-7.29-1.15-8.13-5.37,0-.03-.01-.07-.02-.11-.05-.27-.1-.54-.13-.84-.04-.33-.07-.68-.08-1.04-.27-5.6-.53-11.2-.8-16.8,2.13-.1,3.19-.15,5.32-.22ZM141.09,20.53c2.62-.28,3.93-.41,6.56-.65,3.04,7.78,6,15.59,8.82,23.45-2.1.16-3.15.25-5.25.44-.64-1.99-.97-2.99-1.62-4.97-2.69.25-4.03.38-6.72.66-.25,2.08-.37,3.12-.61,5.2-2.1.23-3.15.35-5.24.6,1.25-8.26,2.59-16.51,4.07-24.73ZM119.73,23.28c.24,1.58.36,2.36.6,3.94-3.71.56-5.56.86-9.26,1.5.38,2.24.58,3.36.96,5.59,3.44-.59,5.16-.87,8.61-1.4.24,1.58.36,2.36.6,3.94-3.42.52-5.12.8-8.53,1.38.44,2.56.66,3.83,1.1,6.39,3.71-.64,5.57-.94,9.29-1.5.24,1.58.36,2.36.59,3.94-5.69.86-8.54,1.33-14.21,2.37-1.45-7.91-2.9-15.81-4.35-23.72,4.85-.9,9.72-1.71,14.59-2.44ZM80.23,55.8c-1.97-7.79-3.93-15.59-5.9-23.38,3.77-.95,6.74-1.78,9.12-2.2,1.09-.22,2.41-.38,3.51-.24,1.75.16,3.11.96,3.98,2.54.66,1.05.97,2.31.91,3.54-.02,1.7-.73,3.46-2.88,4.55,0,.03,0,.04.01.07,2.14-.21,3.86.57,4.96,2.33,1.4,2.28,1.33,5.5.18,7.34-1,1.61-2.37,2.43-4.58,3.13-.03.01-.07.02-.11.03-.18.06-.37.11-.57.17-2.12.62-4.91,1.16-8.66,2.11ZM383,364.23v-28.6c-1.42-1.42-10.19-10.19-11.38-11.38h-7.68c2.15-6.37,6.29-23,1.79-28.18-3.14-3.61-8.97-1.59-21.68,2.58-17.34,5.69-41.53,11.94-59.05,11.94-16.32,0-20.78-4.92-30.64-17.09,6.09-5.71,11.42-11.58,15.36-16.61,7.4-1.8,11.44-1.86,16.99-2.12-.18-3.81-.76-16.22-.96-20.43l-1.66.08c9.86-19.63,14.67-41.71,14.67-67.33v-84.66l17.32-23.42c19.7,5.81,33.29,11.22,41.45,14.39-2.06-7.52-5.34-19.77-11.08-36.85,15.23-9.45,26.59-15.52,34.01-19.55C320.28,13.54,259.85,0,190.63,0h-.02C121.47,0,61.17,13.45.75,36.99c7.31,3.97,18.7,10.05,34.01,19.55-5.73,17.04-9.01,29.3-11.08,36.85,8.19-3.18,22.4-8.85,42.93-14.83,2.02,2.73,16.11,21.78,17.64,23.85v84.66c0,25.61,4.8,47.7,14.67,67.33l-1.66-.08c-.44,9.31-.68,14.49-.96,20.43,5.08.24,9.32.26,16.99,2.13,3.9,4.98,9.2,10.84,15.35,16.61-11.75,14.5-16.78,24.16-71.03,10.78-22.08-5.45-35.52-13.76-40.35-8.21-4.5,5.19-.35,21.84,1.8,28.21H0v139.59h25.13v-38.4c6.54,18.17,7.43,20.67,13.81,38.38h22.04c8.4,0,16.77,0,25.13,0v-26.83c1.1,2.89,9.08,23.88,10.2,26.83h23.23c8.4,0,16.77,0,25.13,0v-10.34c1.17,1.17,9.17,9.17,10.33,10.33h36.85c1.17-1.17,9.16-9.16,10.33-10.33v10.33h25.13v-44.44h9.35v44.44h25.13v-86.09h16.78v86.09h25.13v-86.09h16.78v16.06c1.4,1.4,9.96,9.96,11.38,11.38h26.02v33.49h-12.27v-17.77h-25.13v31.52c1.6,1.6,9.57,9.57,11.38,11.38h39.77c1.62-1.62,9.96-9.96,11.38-11.38v-60.99c-1.38-1.38-9.99-9.99-11.38-11.38h-26.02v-30.7h12.27v14.85h25.13ZM117.66,460.94h-19.34l-15.14-39.82v39.82h-19.29v-105.38h19.34c.11.3,13.82,36.35,15.14,39.82v-39.82h19.29v105.38ZM141.75,460.94h-19.29v-105.33h19.29v105.33ZM200.31,451.27l-9.67,9.67h-34.43l-9.67-9.67v-86.04l9.67-9.67h34.43l9.67,9.67v24.38h-19.29v-14.76h-15.19v66.81h15.19v-19.22h-4.67v-19.29h23.96v48.12ZM202.18,400.22h-28.75v25.13h4.67v13.38h-9.35v-60.96h9.35v14.76h24.08v7.69ZM258.86,460.94h-19.29v-44.44h-15.19v44.44h-19.29v-105.38h19.29v41.65h15.19v-41.65h19.29v105.38ZM318.59,374.84h0s-17.82,0-17.82,0v86.09h-19.29v-86.09h-17.82v-19.29h54.93v19.29ZM320.47,352.64h-83.82v41.65h-9.35v-41.65h-25.13v1.69h0v.29h0v8.35c-1.17-1.17-9.16-9.16-10.33-10.33h-36.85c-2.11,2.11-8.22,8.22-10.33,10.33v-10.28h-24.09v-.05h-25.13v26.83c-.07-.19-10.17-26.73-10.2-26.83h-24.28v98.34l-22.55-60.14,17.49-49.65c19.31,3.07,43.29,7.89,62.93-3.19,10.14-5.73,13.73-11.28,27.53-29.81,14.44,10.7,29.3,19.27,45.13,27.78,15.83-8.51,30.68-17.08,45.13-27.78,13.82,18.55,16.97,23.94,27.46,29.76,18.65,10.35,39.22,6.78,56.38,4.25v10.43ZM342.68,346.46v36.54h27.73l9.67,9.67v58.57h0l-9.67,9.67h-37.35l-9.67-9.67v-27.39h19.29v17.77h18.12v-39.34h-27.73l-9.67-9.67v-54.03c-22.08,3.38-53.32,9.88-73.03-17.16.34.46-4.46-5.91-13.38-17.89,0,0,0,0,0,0,.08.11.16.21.25.33-14.4,10.95-29.99,20.1-45.73,28.56-15.83-8.51-31.38-17.65-45.73-28.56.18-.24.4-.53.63-.84h0c-9.93,13.34-13.76,18.4-13.76,18.4-19.65,26.95-50.04,20.95-78.6,16.28,0,0-18.73,53.17-18.73,53.17l26.28,70.06h-20.6s-18.58-51.65-18.58-51.65l-.2.58v51.09H2.92v-133.75h19.29s0,0,0,0v41.03l12.6-34.27c-1.03-.25-2.17-.56-2.84-.75l-.08.21c-2.29-.65-5.53-1.6-6.76-3.15v-.23c-1.2-1.5-2.23-3.98-2.88-5.76h-.08c-2.13-5.94-6.45-23.88-2.38-26.81,3.64-2.61,19.32,5.02,37.13,9.41,55.37,13.66,61.99,3.94,76.34-14.63-.01-.01-.02-.02-.03-.03-.2.25-.39.49-.6.75-6.95-6.31-12.68-12.54-17.65-18.9.75.19,1.52.4,2.3.62-.52-.25-8.33-2.5-17.92-2.94.02-.39.64-13.63.69-14.59,3.05.14,3.94.22,3.87.22-11.23-20.27-16.73-43.53-16.73-70.52h0s0-.01,0-.01v-85.39c-8.64-11.68-19.25-26.04-19.25-26.04-12.56,3.61-36.13,12.16-40.04,13.68,3-10.93,6.52-22.46,10.39-33.81-10.02-6.28-20.2-12.22-30.59-17.86C66.7,14.43,128.66,2.92,190.6,2.92c.15,0,.3,0,.45,0,62.1-.06,124.2,11.44,183.37,34.5-10.4,5.64-20.57,11.58-30.59,17.86,3.75,11,7.15,22.07,10.23,33.27h0c.04.15.09.31.13.46-4.75-1.84-38.89-13.91-39.27-13.39-.29.39-1.55,2.1-1.84,2.49-.05-.01-11.04,14.71-17.25,23.1,0,93.45,0,86.05-.01,87.87-.32,24.42-5.09,47.28-16.72,68.28-1.02.08.56-.06,3.87-.22l.69,14.59c-5.38.26-10.51.95-16.41,2.51,0,0-.02.02-.03.03.27-.07.54-.15.82-.22-4.91,6.29-10.63,12.52-17.66,18.91-.05-.06-.1-.12-.15-.18-.01.01-.02.02-.04.03,8.44,10.88,14.49,18.03,27.29,19.99,14.3,1.92,36.47-2.77,50.37-6.38,10.24-2.66,19.65-6.26,26.3-8.17.04-.01.07-.02.1-.03.33-.1.66-.19.98-.27,3.88-1.05,6.69-1.41,7.98-.49.12.08.22.18.31.28.1.12.19.24.28.38,2.99,4.68-1.08,20.85-2.97,26.12h-.08c-.36.99-.76,1.99-1.2,2.92h10.85l9.67,9.67v24.47h0s-19.29,0-19.29,0v-14.85h-18.12ZM25.13,351.82v-17.82c1.15.63,2.91,1.35,5.75,2.17l-5.75,15.65ZM235.51,41c1.49.14,2.39-.41,2.99-1.58.99-1.9,2.93-13.48.6-15.53-.91-.8-3.25-1.19-4.43.12-1.69,1.9-2.1,9.89-2.1,12.42.02,2.45.51,4.34,2.94,4.57ZM295.31,70.43c-13.01-3.14-26.12-5.69-39.28-7.64,0-.04-2.96-.48-2.96-.43.17,1.71,1.71,16.92,2.61,25.87h30.02c6.91-9.4,11.92-16.23,12.54-17.09.05-.06-2.89-.77-2.93-.71ZM284.23,85.53h-25.9c-.87-8.6-1.56-15.47-1.99-19.77,12.46,1.87,24.84,4.27,37.12,7.2-2.87,3.91-5.95,8.11-9.23,12.57ZM270.78,31.5c.62-3.67-2.52-3.82-5.54-4.29-.43,2.75-.65,4.12-1.08,6.87.13.02.25.04.38.06,2.69.44,5.59,1.17,6.24-2.64ZM144.82,24.36s-.04,0-.07,0c-.58,4.42-.86,6.62-1.39,11.04,2-.21,3-.31,4.99-.49-1.39-4.23-2.09-6.34-3.53-10.55ZM280.59,268.98l-.41-8.76c-25.78,1.67-50.67,14.54-71.76,29.11-.02-.98-2.58-109.99-2.59-110.67.36.07,47.77,9.65,48.08,9.71,0-.05,5.41-50.44,5.43-50.62-.05.01-67.79,13.5-67.84,13.5,0,0-67.83-13.5-67.83-13.5,0,.05,5.42,50.58,5.43,50.62.34-.07,47.82-9.66,48.08-9.71-.01.55-2.55,108.87-2.59,110.67-21.11-14.59-46.26-27.46-71.76-29.11l-.41,8.76c26.56,1.89,59.52,22.01,80.52,38.22.01-.44,3.26-139.3,3.26-139.31-1.88.38-47.48,9.59-49.41,9.98-.82-7.67-3.13-29.16-3.13-29.2,0,0,57.71,11.49,57.85,11.52,0,0,57.83-11.51,57.85-11.52,0,.07-3.01,28.06-3.13,29.2-.06-.01-49.24-9.95-49.41-9.98.13,5.71,3.12,133.14,3.26,139.31,12.21-9.44,26.7-18.81,40.89-25.83,11.89-5.88,26.35-11.45,39.63-12.39ZM129.94,62.22c-14.57,2.03-30.46,5.07-45.32,8.73,3.83,5.23,7.53,10.27,12.68,17.27h30.03c.52-5.11,2.12-21.03,2.62-26ZM124.68,85.53h-25.9c-3.38-4.6-6.55-8.92-9.49-12.93,12.38-2.91,24.86-5.28,37.42-7.11-.43,4.28-1.14,11.26-2.02,20.04Z"/>
          <path class="cls-1" d="M61.83,311.05c-.35,1.43-5.83,24.01-5.83,24.01.68.11,1.78.29,2.66.43l6.8-23.62c-1.18-.26-2.39-.53-3.63-.82ZM320,63.61l-9.49-4.26c-.57.78-1.15,1.57-1.75,2.39l8.81,5.15,2.42-3.28ZM85.41,315.35l-6.6,22.96c1.53.17,3.06.31,4.58.4l3.94-23.15c-.63-.07-1.27-.14-1.92-.22ZM86.33,338.85c.9.03,1.79.04,2.66.04l3.04-22.92c-.58-.04-1.18-.08-1.78-.13l-3.92,23.01ZM61.57,335.94c3.31.51,6.48.97,9.29,1.36l2.5-23.82c-1.62-.3-3.3-.63-5.03-.99l-6.76,23.46ZM326.26,55.14l-8.21-6.09c-.37.5-.76,1.04-1.16,1.58l8.18,6.12,1.19-1.61ZM76.24,313.99l-2.49,23.7c.75.1,1.46.19,2.12.27l6.61-22.99c-1.98-.28-4.06-.6-6.24-.98ZM58.98,310.39c-1.16-.28-.64-1.46-5.79-1.46-.26-.07-.55-.15-.8-.22-.01.44-.69,25.6-.69,25.63.47.08.89.15,1.41.24.09-.35,5.23-21.52,5.88-24.19ZM125.28,277.3c-3.33-1.22-6.85-2.35-10.3-3.23,4.97,6.37,10.71,12.59,17.65,18.9,1.26-1.57,2.45-3.07,3.64-4.59-3.98-3.63-7.63-7.32-10.99-11.08ZM330.61,308.71c-2.27.63-3.64.98-6.59,1.68,0,.01,5,20.59,5.05,20.78h0s.83,3.41.83,3.41c.47-.08.94-.16,1.41-.24,0-.07-.69-25.56-.69-25.63ZM314.68,312.48c-1.73.36-3.41.69-5.03.99l2.5,23.82c3.02-.42,6.29-.9,9.29-1.36-.02-.06-6.74-23.39-6.76-23.46ZM334.21,333.83c.37-.07.73-.13,1.1-.2.22-2.7,1.98-24.67,2.16-26.96-1.31.41-2.63.81-3.96,1.2,0,.02.7,25.94.7,25.95ZM47.69,333.64c.36.07.73.13,1.1.2,0-.11.69-25.72.7-25.95-1.33-.39-2.65-.79-3.96-1.2.09,1.07,2.03,25.32,2.16,26.96ZM233.74,299.18c-11.58,8.81-25.44,17.52-42.24,26.61-16.8-9.09-30.66-17.8-42.24-26.61-.93,1.25-1.23,1.65-3.49,4.69,14.34,10.91,29.89,20.05,45.73,28.56,15.73-8.46,31.33-17.61,45.73-28.56-.85-1.15-1.21-1.63-3.49-4.69ZM85.82,94.47c.44.59,1.98,2.68,2.04,2.77,0,0,8.18-5.76,8.19-5.76-.15-.21-2.89-3.93-3.04-4.14,0,0-6.57,6.53-7.19,7.14ZM84.06,92.1c.3-.3,6.89-6.85,7.2-7.15-.75-1.03-1.5-2.04-2.23-3.05l-8.26,5.73c1.08,1.46,2.18,2.95,3.3,4.46ZM93.48,104.84c.92,1.25,1.86,2.51,2.8,3.79l7.98-5.97c-.92-1.26-1.84-2.5-2.74-3.73l-8.04,5.91ZM323.33,59.1l-8.17-6.11c-.9,1.23-1.86,2.55-2.88,3.94l9.5,4.27,1.55-2.1ZM79.02,85.28l8.27-5.74c-1.16-1.57-2.28-3.11-3.38-4.61l-7.23,7.18c.77,1.04,1.55,2.09,2.34,3.16ZM89.6,99.59c.15.21,2,2.7,2.15,2.9,0,0,8.04-5.91,8.05-5.92-.04-.06-1.97-2.69-2.02-2.74-.15.1-8.17,5.75-8.18,5.76ZM38.94,304.57c-2.37-.78-3.75-1.23-5.28-1.73.01.74.39,27.68.39,27.97.24.06.73.18,1.14.28.01-.09,3.73-26.44,3.74-26.53ZM257.74,277.28c-3.36,3.77-7.02,7.46-11.01,11.1,1.46,1.86,2.52,3.18,3.64,4.59,7.03-6.39,12.75-12.62,17.66-18.91-3.08.79-6.66,1.89-10.29,3.22ZM93.02,109.13s-.07-.02-5.84-7.75v10.41c0,22.74,0,74.35,0,75.07h0c0,27,5.5,50.26,16.73,70.53.87.07,2.18.19,3.27.31.52-1.3.98-2.67,1.37-4-10.43-19.21-15.53-41.26-15.53-66.83v-77.72ZM290.97,315.98l3.04,22.92c.87,0,1.76-.01,2.66-.04l-3.92-23.01c-.61.05-1.2.1-1.79.13ZM321.17,311.05c-1.23.28-2.45.56-3.63.82.02.07,6.69,23.22,6.8,23.62.94-.15,1.83-.29,2.66-.43-.06-.25-5.77-23.75-5.83-24.01ZM295.81,189.1c.02-1.83.01,4.28.01-87.87-.65.88-5.19,7.01-5.84,7.9v77.72c0,25.57-5.1,47.62-15.53,66.83.45,1.53.96,2.98,1.37,4,1.07-.12,2.52-.25,3.27-.31,11.63-21,16.4-43.86,16.72-68.28ZM300.52,314.97l6.61,22.99c.67-.08,1.37-.18,2.12-.27l-2.49-23.7c-2.19.38-4.26.7-6.24.98ZM341.24,305.48c-.25.08-.51.16-.76.24,0,0-2.2,27.36-2.2,27.36,2.37-.45,4.61-.9,6.66-1.34-.01-.08-3.69-26.18-3.71-26.26ZM42.52,305.73c-.25-.08-.51-.16-.76-.24-.01.08-3.69,26.18-3.71,26.26,2.12.46,4.54.94,6.66,1.34,0-.09-2.19-27.23-2.2-27.36ZM295.67,315.57l3.94,23.15c1.58-.1,3.13-.24,4.58-.4l-6.6-22.96c-.65.08-1.29.15-1.92.22ZM344.06,304.57s3.74,26.53,3.74,26.53c.39-.09.77-.19,1.14-.28,0,0,.39-27.89.4-27.97-1.62.52-3.18,1.04-5.28,1.73ZM295.14,97.24c.18-.24,1.85-2.5,2.05-2.77-.37-.37-6.86-6.81-7.19-7.14-.02.03-2.96,4.03-3.04,4.14.17.12,8.19,5.76,8.19,5.76ZM306.32,82.12l-7.22-7.18c-1.1,1.5-2.23,3.04-3.38,4.61l8.27,5.74c.79-1.07,1.57-2.12,2.34-3.16ZM101.59,94.07h25.14c0-.06.58-5.78.59-5.84h-30.03c.9,1.23,3.02,4.1,4.29,5.84ZM256.27,94.07h25.14c1.26-1.72,2.73-3.72,4.29-5.84h-30.02c.03.28.56,5.54.59,5.84ZM278.74,102.65l7.98,5.97c.94-1.27,1.87-2.53,2.8-3.79l-8.04-5.91c-.9,1.23-1.82,2.47-2.74,3.73ZM65.42,66.88l8.81-5.15c-.6-.82-1.18-1.61-1.75-2.39l-9.49,4.26,2.42,3.28ZM291.26,102.49c1.37-1.85-.33.45,2.15-2.9-.69-.48-7.87-5.54-8.18-5.76,0,0-2.01,2.74-2.02,2.74,1.84,1.35,6.24,4.59,8.05,5.92ZM298.94,92.1c1.12-1.51,2.22-3,3.3-4.46l-8.26-5.73c-.74,1-1.48,2.02-2.23,3.05.91.9,6.54,6.5,7.2,7.15ZM70.37,73.58c1.05-.96,6.7-6.12,7.51-6.87-.65-.89-1.29-1.76-1.92-2.62l-8.8,5.15s3.2,4.33,3.21,4.34ZM82.16,72.55s-1.44-1.97-2.54-3.47c0,0-7.48,6.84-7.5,6.86,0,0,1.31,1.77,2.81,3.8,8.31-8.27,4.08-4.06,7.23-7.19ZM308.07,79.75c1.57-2.12,2.81-3.8,2.81-3.8-2.59-2.37-7.5-6.86-7.5-6.86-.09.12-2.44,3.33-2.54,3.47.81.8,7.23,7.19,7.23,7.19ZM61.22,61.2l9.5-4.27c-1.02-1.39-1.98-2.71-2.88-3.94l-8.17,6.11,1.55,2.1ZM66.11,50.64c-.4-.55-.79-1.08-1.16-1.58l-8.21,6.09,1.19,1.61,8.18-6.12ZM312.63,73.58s3.21-4.34,3.21-4.34l-8.8-5.15c-.63.85-1.26,1.72-1.92,2.62.7.64,3.28,3,7.51,6.87Z"/>
          <path class="cls-2" d="M101.32,414.85l-20.22-56.37,20.22,56.38v12.95l-25.29-69.32h-9.19v99.53h6.68s-.18-79.35-.18-79.36l6.91,22.99.03,52.56v-52.56l20.22,56.37h7.45v-99.53h-6.64v56.37ZM125.38,458.02h6.64v-99.49h6.8v99.49h0v-99.49h-13.44v99.49ZM148.5,233.97c-1.85,3.35-1.39,8.68.77,11.16.06.07.13.14.2.21.02.02.04.05.07.07.98.93,2.21,1.13,3.51.11,3.17-5.73-.62-14.82-4.54-11.54ZM123.69,47.07c-.24-1.58-.36-2.36-.59-3.94-3.72.56-5.58.86-9.29,1.5-.44-2.56-.66-3.83-1.1-6.39,3.41-.59,5.12-.86,8.53-1.38-.24-1.58-.36-2.36-.6-3.94-3.45.53-5.17.81-8.61,1.4-.38-2.24-.58-3.36-.96-5.59,3.7-.64,5.55-.93,9.26-1.5-.24-1.58-.36-2.36-.6-3.94-4.88.73-9.75,1.55-14.59,2.44,1.45,7.91,2.9,15.81,4.35,23.72,5.67-1.04,8.51-1.51,14.21-2.37ZM272.84,258.06c-3.89-10.3-5.91-29.19-7.17-40.75,0-.03,0-.06,0-.09-1.6-14.75-3.33-33.53-5.73-57.53l-3.45,32.18c-.25-.05-47.38-9.57-47.64-9.62,0,.42,2.37,101.28,2.38,101.62,17.98-12.06,40.01-22.7,61.62-25.81ZM245.45,220.86h0c2.16,0,4.01,3.15,4.01,7.18,0,6.56-4.42,9.46-6.86,5.05,0,0,0,0,0,0-2.48-4.49-.72-12.22,2.85-12.22ZM231.08,209.13c2.17-1.87,4.61.12,5.44,3.75,1.64,7.15-3.45,13.37-6.56,7.77,0,0,0,0,0,0-1.93-3.5-1.38-9.37,1.12-11.51ZM235.3,234.86c4.53,6.44-1.5,17.6-5.34,10.65,0,0,0,0,0,0-3.53-6.39,1.46-16.19,5.35-10.65ZM221.56,196.45c4.17,2.79,3.06,13.89-1.4,13.89-1.11,0-2.12-.81-2.85-2.13,0,0,0,0,0,0-2.99-5.4.24-14.53,4.25-11.76ZM222.44,222.13c2.25,2.78,2.34,8.71.15,11.62-1.5,1.99-3.73,2.11-5.27-.67,0,0,0,0,0,0-3.41-6.17,1.14-15.83,5.12-10.95ZM216.27,251.18c1.25-8.24,7.56-6.52,7.88,1.08.34,6.75-4.22,10.41-6.83,5.69,0,0,0,0,0,0-1.14-2.06-1.38-4.56-1.05-6.76ZM214.35,278.73c11.57-8.76,34.74-23.77,49.12-26.34-2.01-6.71-3.31-64.15-3.31-64.15,2.68,27,4.77,52.97,9.16,67.65-19.17,3.42-38.44,12.36-54.96,22.83ZM263.64,37.41c3.91.61,5.64.44,5.19,4.55-.26,2.36-1.12,5.17-.38,6.58,2.17.37,3.25.56,5.41.96l.04-.2c-.74-.58-.75-1.48-.53-3.32,0-.05.01-.1.02-.15.5-4.04,1.95-7.51-2.6-8.96,0-.03,0-.04.01-.07,1.77-.05,3.23-.72,4.2-2.16,1.26-1.89,3.53-8.89-4.82-10.27-3.83-.64-5.78-.94-9.65-1.51-1.16,7.95-2.32,15.91-3.47,23.86,2.01.29,3.01.44,5.01.76.63-4.03.95-6.05,1.58-10.08ZM265.24,27.2c2.32.36,7.3.52,5.2,5.5-.6,1.44-1.83,1.9-3.4,1.79-.74-.05-1.56-.2-2.5-.36-.13-.02-.25-.04-.38-.06.43-2.75.65-4.12,1.08-6.87ZM377.16,358.38v-20.33l-7.96-7.96h-11.37c-3,3.68-26.71,7.28-31.51,8.04v53.28c.21.21,7.75,7.75,7.96,7.96h29.44v45.18h-23.96s-6.7,0-6.7,0v-17.77h-6.74v23.26l7.96,7.96h34.93l7.96-7.96v-56.15l-7.96-7.96h-29.44v-42.39h23.96v14.85h6.65v-27.12l6.79,6.79v20.33h0ZM370.37,387.1l6.78,6.78v56.15l-6.78,6.78v-69.71ZM339.76,385.92h-6.7v-42.39h6.7v42.39ZM148.5,209.1c-3.05,5.53.37,14.81,4.54,11.54,3.16-5.71-.62-14.83-4.54-11.54ZM161.11,246.47c-3.09,5.72.64,14.76,4.57,11.47,3.14-5.67-.53-14.95-4.57-11.47ZM152.28,290.22c-3.09-1.78-6.32-3.55-9.63-5.24-18.52,23.76-23.13,32.08-47.69,31.15l-3.01,22.7c25.12-1.02,34.84-14.33,38.34-19.13,0,0,4.52-5.94,22-29.48ZM161.14,221.54c-3.14,5.71.57,14.86,4.54,11.54,3.13-5.66-.54-14.9-4.54-11.54ZM19.29,330.12h-6.61c1.23,0,5.25.02,6.61.03v-.03ZM234.5,209.1s0,0,0-.01c0,0,0,0,0,.01,0,0,0,0,0,0ZM5.84,458.03h6.79v-127.91h-6.79v127.91ZM234.5,233.97c-2.53-4.49,0,0,0,0h0ZM120.34,134.11l2.32.46c.2-2.04.41-4.07.61-6.09-5.99-8.13-11.78-16-17.28-23.48l-7.97,5.97c7.33,9.92,15.14,20.48,23.2,31.38l-.88-8.24ZM27.6,328.43c.44.47,1.69,1.01,3.53,1.57l-.4-28.1c-4.22-1.32-8-2.35-9.14-2.11-2.13,3.6,2.35,24.72,6.01,28.64ZM292.47,53.33c1.98.45,2.97.68,4.95,1.16,1.56-6.53,3.12-13.05,4.69-19.58,2.24.54,3.36.81,5.59,1.37.39-1.55.58-2.32.97-3.86-5.5-1.35-10.99-2.63-16.52-3.86-.33,1.56-.5,2.34-.84,3.9,2.25.48,3.37.73,5.61,1.24-1.49,6.54-2.98,13.09-4.47,19.63ZM211.05,123.24c-2.56-4.47,0,0,0,0h0ZM315.67,371.92h-6.7v-13.44h-42.39v13.44h17.82v86.09h6.74v-86.09h6.7v86.09h0v-86.09h17.82v-13.44h0v13.44ZM255.94,458.01h-6.74v-99.53h-6.7v41.65h-21.04v-41.65h0v41.65h-6.74v-41.65h-6.7v99.53h6.7v-44.45h6.74v44.45h0v-44.44h21.04v44.44h13.44v-99.53h0v99.53ZM113.68,255.89c19.23,3.43,38.53,12.42,54.96,22.83-7.9-5.99-33.19-23.5-49.12-26.34,2.01-6.71,3.31-64.15,3.31-64.15-2.48,24.96-4.66,52.62-9.16,67.65ZM155.31,120.66c-3.08,5.57.39,14.81,4.53,11.55,3.19-5.78-.62-14.8-4.53-11.55ZM189.43,358.48h-32.01l-7.96,7.96v83.62l7.96,7.96h32.01l.26-.26.06-.06.12-.12c.3-.3.47-.47.73-.73v-50.77h-11.33v13.44h4.67v25.07h-27.72v-72.65h6.68s21.04,0,21.04,0v14.76h6.66v-27.03l-1.18-1.18ZM176.49,109.91c3.14-5.68-.55-14.88-4.54-11.54-3.06,5.56.38,14.8,4.54,11.54ZM176.49,134.78c3.17-5.74-.58-14.85-4.54-11.54-3.06,5.55.38,14.81,4.54,11.54ZM138.82,66.27c11.05-6.95,31.97-10.76,43.86-11.77-14.46.58-34.54,3.03-47.37,9.43-.46,4.51-6.69,66.39-6.95,69.03,1.19-7.18,9.72-59.4,10.46-66.7ZM257.46,135.14c-3.2-31.86-7.32-72.73-7.37-73.24-15.11-8.29-41.41-10.66-58.59-10.66v97.03s65.96-13.13,65.96-13.13ZM229.99,127.75c-.33,6.5-4.54,8.6-6.83,4.46,0,0,0,0,0,0-3.14-5.68.53-14.87,4.53-11.55,1.74,1.45,2.44,4.34,2.3,7.09ZM200.32,54.5c14.36.57,34.51,3.01,47.37,9.43,1.45,14.34,6.74,66.98,6.95,69.03-.17-1-9.68-58.97-10.46-66.7-10.8-6.79-31.27-10.7-43.86-11.77ZM205.56,102.59s.01-.07.02-.11c.02-.07.03-.15.05-.22,1.79-8.13,8.48-4.59,7.66,3.79-.3,3.16-1.72,5.98-3.93,5.98-1.11,0-2.12-.81-2.85-2.13,0,0,0,0,0,0-.09-.15-.16-.31-.24-.47-.06-.12-.11-.24-.16-.37,0-.02-.02-.04-.03-.06-.84-2.05-.93-4.39-.52-6.41ZM213.18,131.98c-.86,4.83-4.47,6.77-6.67,2.8,0,0,0,0,0,0-3.12-5.64.5-14.91,4.53-11.55,1.86,1.54,2.75,5.33,2.14,8.75ZM44.91,336.11c-2.25-.42-4.96-.97-7.19-1.46,0,0-18.38,50.55-18.43,50.68v24.04l3.04-8.63,20.69,57.28h7.76l-25.17-67.11c.05-.13,19.26-54.68,19.3-54.79ZM169.61,36.25c.03.29.08.57.13.84,0,.03.01.07.02.11.83,4.2,3.71,5.5,8.13,5.37,1.03-.03,2.02-.16,2.97-.38.24-.06.47-.12.7-.2.09-.03.18-.08.27-.11.13-.05.26-.1.39-.16.1-.05.19-.11.29-.16.11-.06.23-.12.33-.19.1-.06.19-.14.28-.2.1-.07.2-.14.29-.21.09-.08.18-.17.26-.25.09-.08.18-.16.26-.24.09-.09.16-.2.24-.29.07-.09.15-.17.22-.27.09-.12.17-.25.25-.38.05-.09.11-.16.16-.25.13-.22.25-.46.35-.71.19-.43.32-.8.42-1.3,0-.04.02-.09.02-.13,0-.02,0-.05.01-.07.29-1.82.13-5.52-.04-19.12-2.13.03-3.19.05-5.32.1.23,9.8.49,14.71.37,17.34-.04.99-.14,1.66-.32,2.14-.22.61-.55.93-1.05,1.23-.12.07-.34.17-.61.25-.28.08-.62.15-.98.15-.6,0-1.27-.14-1.82-.66-.55-.52-.99-1.4-1.13-2.83-.02-.2-.04-.41-.05-.63-.01-.35-.03-.7-.04-1.04-.19-5.25-.38-10.51-.57-15.76-2.13.08-3.19.12-5.32.22.27,5.6.53,11.2.8,16.8.02.36.05.71.08,1.04ZM140.4,233.08c3.17-5.73-.59-14.85-4.54-11.54-2.91,5.28.08,14.73,4.54,11.54ZM161.15,196.66c-3.29,5.95.83,14.86,4.53,11.55,3.18-5.74-.59-14.82-4.53-11.55ZM195.62,364.68c-.17-.17-.34-.34-.51-.51.11.11.22.22.32.32l1.42,1.42c.24.24.43.43.53.53h0c-.59-.59-1.1-1.1-1.58-1.58l-.18-.18ZM142.88,39.46c2.69-.29,4.03-.42,6.72-.66.65,1.99.98,2.98,1.62,4.97,2.1-.19,3.15-.27,5.25-.44-2.82-7.86-5.78-15.68-8.82-23.45-2.62.24-3.93.37-6.56.65-1.48,8.22-2.82,16.47-4.07,24.73,2.09-.25,3.14-.37,5.24-.6.24-2.08.36-3.12.61-5.2ZM144.74,24.37s.04,0,.07,0c1.43,4.22,2.14,6.33,3.53,10.55-2,.19-3,.29-4.99.49.53-4.42.81-6.62,1.39-11.04ZM197.39,386.69h0s-6.78,0-6.78,0h6.78ZM204.65,31.7c3.45.1,5.17.16,8.61.32.07-1.59.11-2.39.19-3.98-3.47-.16-5.21-.23-8.69-.33.06-2.27.1-3.4.16-5.67,3.74.11,5.61.18,9.34.36.08-1.59.11-2.39.19-3.98-4.91-.24-9.83-.4-14.74-.48-.14,8.04-.28,16.07-.41,24.11,2.02.03,3.03.06,5.05.11.12-4.19.18-6.28.3-10.47ZM192.63,361.68c-.06-.06-.13-.13-.19-.19l.22.22c.15.15.29.29.44.44l-.46-.46ZM194,363.05c-.31-.31-.61-.61-.91-.91l.86.86s.03.03.05.05ZM234.25,44.34c7.7,1.2,9.66-2.85,10.67-9.97,1.12-7.8,1.1-13.94-7.34-14.75-8.29-.8-9.56,4.82-10.03,13.13-.36,6.43.54,10.63,6.7,11.59ZM232.64,34.27c.48-8.95,1.48-11.77,5.13-11.01.98.2,1.61.71,1.98,1.54,1.15,2.53.03,13.91-2.02,15.64-.73.61-1.75.68-2.68.49-2.1-.43-2.48-2.36-2.48-4.53,0-.67.03-1.46.06-2.12ZM88.88,53.69c.19-.06.39-.11.57-.17.04-.01.07-.02.11-.03,2.18-.7,3.58-1.54,4.58-3.13,1.1-1.76,1.2-4.97-.1-7.22-.11-.18.02.02-.12-.19-.94-1.49-2.54-2.5-4.92-2.27,0-.03,0-.04-.01-.07,3.1-1.59,3.61-5.46,1.96-8.09-1.09-1.74-2.9-2.62-4.88-2.6-.83,0-1.7.11-2.62.3-.13.03-.27.05-.4.08-3.49.81-5.24,1.23-8.72,2.11,1.97,7.79,3.93,15.59,5.9,23.38,3.74-.94,6.53-1.49,8.66-2.11ZM88.76,44.43s0,0,0,0c.05.07.1.14.14.21.01.02.02.04.03.06.04.06.07.12.11.19.02.04.04.07.05.11.03.05.05.1.08.16.02.05.04.1.06.15.02.05.04.1.06.15.02.06.04.13.06.2.01.04.03.08.04.13.03.11.06.23.09.36.31,1.36.15,2.38-.48,3.05-.14.15-.29.29-.44.41-.02.01-.04.02-.06.04-.14.11-.28.21-.43.29-.05.03-.1.05-.14.07-.12.07-.25.13-.38.19-.15.07-.31.12-.47.18-.03.01-.06.02-.09.04-.79.27-1.68.44-2.67.67-.68-2.82-1.02-4.24-1.7-7.06,2.18-.52,4.75-1.43,6.12.39ZM86.44,35.59c.21.48.34,1.03.35,1.57.02.55-.08,1.09-.33,1.51-.02.04-.04.07-.07.11-.85,1.25-3.02,1.61-4.54,1.98-.59-2.46-.89-3.68-1.48-6.14,2.85-.68,5.03-1.41,6.07.97Z"/>
          <path d="M161.95,259.89c1.25.53,2.65.01,3.73-1.94-3.93,3.25-7.68-5.71-4.57-11.48-3.38,2.9-2.94,11.81.84,13.42ZM221.85,246.39c3.19,5.76-.6,14.81-4.53,11.56,2.63,4.74,7.17,1.02,6.83-5.69-.1-2.04-.74-4.57-2.3-5.87ZM221.85,221.52c3.13,5.74-.54,14.86-4.53,11.56,1.52,2.75,3.81,2.72,5.35.56.01-.01.02-.03.03-.04,2.31-3.3,1.82-9.86-.85-12.07ZM263.66,374.85h17.82v86.09h19.29v-86.09h17.82v-19.29h-54.93v19.29ZM266.58,358.48h42.39c8.23,0-2.23,0,6.7,0v13.44h-17.82v86.09h-13.44v-86.09h-17.82v-13.44ZM239.58,397.21h-15.19v-41.65h-19.29v105.38h19.29v-44.44h15.19v44.44h19.29v-105.38h-19.29v41.65ZM242.5,358.48h13.44v99.53h-13.44v-44.44h-21.04v44.44h-13.44v-99.53h6.7s6.74,0,6.74,0h0s0,0,0,0v41.65h21.04v-41.65ZM213.18,131.98c.69-3.85-.48-7.38-2.14-8.75,3.17,5.79-.66,14.94-4.53,11.56,2.19,3.96,5.8,2.03,6.67-2.8ZM176.49,109.91c-3.98,3.3-7.68-5.84-4.54-11.54-1.29,1.08-2.46,3.64-2.31,7.09.26,6,4.42,8.84,6.84,4.46ZM234.49,209.09c3.08,5.39-.38,14.93-4.53,11.56,1.07,1.94,2.77,2.82,4.44,1.52,3.3-2.55,3.11-10.57.09-13.07ZM161.76,210.07c1.2.6,2.55.24,3.63-1.38.1-.15.19-.3.28-.47-3.92,3.36-7.7-5.82-4.53-11.56-.1.09-.2.18-.3.27-.01.01-.02.02-.03.03-.08.08-.15.16-.22.25-.04.05-.09.11-.13.17-.02.03-.05.06-.07.09-.06.09-.13.18-.19.27-2.15,3.34-1.91,10.35,1.55,12.32ZM122.46,460.94h19.29v-105.33h-19.29v105.33ZM125.38,358.53h13.44v99.49h-13.44v-99.49ZM380.08,361.31h0s0,0,0,0v-24.47l-9.67-9.67h-10.85c.44-.93.84-1.93,1.2-2.92h.08c1.89-5.28,5.95-21.43,2.97-26.12-.09-.14-.18-.27-.28-.38-.09-.11-.2-.2-.31-.28-1.29-.93-4.1-.56-7.98.49-.32.09-.65.18-.98.27-.03.01-.07.02-.1.03-6.65,1.91-16.06,5.51-26.3,8.17-59.65,15.51-64.23,3.39-81.12-18.05,3.99-3.64,7.64-7.33,11.01-11.1,10.32-3.78,17.88-5.15,25.91-5.53l-.69-14.59c-2.46.12-4.45.23-7.14.53-.41-1.02-.92-2.47-1.37-4,10.43-19.21,15.53-41.26,15.53-66.83v-77.72c.66-.89,5.19-7.02,5.84-7.9,0,0,0,0,0,0,6.21-8.39,17.2-23.12,17.25-23.1.29-.39,1.56-2.11,1.84-2.49.38-.52,34.71,11.62,39.27,13.39-3.1-11.24-6.5-22.41-10.36-33.73,10.02-6.28,20.2-12.22,30.59-17.86C315.25,14.37,253.15,2.87,191.05,2.92c-.15,0-.3,0-.45,0-61.94,0-123.9,11.5-182.92,34.5,10.4,5.64,20.57,11.58,30.59,17.86-3.75,11.01-7.33,22.66-10.39,33.81.91-.35,25.7-9.56,40.04-13.68.12.17,24.9,33.67,25.1,33.71v77.72c0,25.57,5.1,47.62,15.53,66.83-.39,1.33-.85,2.7-1.37,4-3.08-.34-5.2-.43-7.14-.53-.05,1.06-.67,14.21-.69,14.59,7.85.37,15.44,1.7,25.93,5.55,3.36,3.77,7.01,7.45,10.99,11.08-16.6,21.07-20.98,33.69-81.12,18.05-17.65-4.59-32.83-11.96-35.68-8.68-3.58,4.12.83,21.33,2.69,26.52h.08c.65,1.79,1.69,4.27,2.88,5.76v.23c1.24,1.55,4.48,2.5,6.76,3.15l.08-.21c.58.17,1.73.48,2.84.75-.02.06-12.58,34.21-12.6,34.27v-41.03h0c-7.21,0-12.17,0-19.29,0v133.75h19.29v-51.09l.2-.58,18.58,51.65h0s20.6,0,20.6,0l-26.28-70.06,18.73-53.17c28.56,4.67,58.95,10.67,78.6-16.28,3.85-5.09,12.83-17.14,16.62-22.24,11.58,8.81,25.44,17.52,42.24,26.61,16.8-9.09,30.66-17.8,42.24-26.61,10.76,14.46,17.01,22.77,16.62,22.24,19.2,26.33,48.74,20.88,73.03,17.16v54.03l9.67,9.67h27.73v39.34h-18.12v-17.77h-19.29v27.39l9.67,9.67h37.35l9.67-9.67h0v-58.57l-9.67-9.67h-27.73v-36.54h18.12v14.85h19.29ZM27.6,328.43c-3.68-3.94-8.13-25.05-6.01-28.64,1.14-.24,4.92.79,9.14,2.11l.4,28.1c-1.83-.56-3.08-1.1-3.53-1.57ZM49.49,307.88c-.02.86-.68,25.13-.7,25.95-.37-.07-.73-.13-1.1-.2,0,0-2.16-26.96-2.16-26.96,1.31.41,2.63.81,3.96,1.2ZM41.76,305.48c.25.08.51.16.76.24.01.16,2.19,27.28,2.2,27.36-2.1-.4-4.51-.87-6.66-1.34.07-.46,3.67-25.99,3.71-26.26ZM34.06,330.81c0-.1-.38-27.24-.39-27.97,1.53.49,2.89.94,5.28,1.73-.1.71-3.64,25.82-3.74,26.53-.41-.1-.9-.22-1.14-.28ZM32.2,390.9l25.17,67.11h-6.6s-7.76,0-7.76,0l-20.69-57.28-3.04,8.63v48.69c-8.01-.03-5.34-.03-12.83-.03h-.61v-127.91h6.79c.05,0,6.6,0,6.65,0v55.2s18.34-50.44,18.43-50.68c5.12,1.14,12.42,2.43,13.4,2.57,0,0-18.91,53.68-18.91,53.69ZM352.28,301.91c4.22-1.32,8-2.35,9.14-2.11,1.96,3.31-1.64,21.26-5.13,27.38h0c-.76,1.33-.95,1.77-4.4,2.83,0-.06.39-27.84.4-28.1ZM349.34,302.84c0,.08-.4,27.97-.4,27.97-.37.09-.75.19-1.14.28-.02-.15-3.74-26.53-3.74-26.53,2.05-.67,3.66-1.2,5.28-1.73ZM340.48,305.73c.25-.08.51-.16.76-.24.13.95,3.71,26.26,3.71,26.26-2.05.45-4.3.9-6.66,1.34.2-2.52,2.18-27.17,2.2-27.36ZM337.47,306.68c-.03.44-2.13,26.5-2.16,26.96-.36.07-.73.13-1.1.2,0,0-.7-25.95-.7-25.95,1.33-.39,2.65-.79,3.96-1.2ZM330.61,308.71s.69,25.57.69,25.63c-.47.08-.94.16-1.41.24-.34-1.42-.39-1.59-.83-3.41h0c-.62-2.56-5.05-20.78-5.05-20.78,2.86-.68,4.23-1.03,6.59-1.68ZM261.78,142.35l.88-8.24-2.32.46c-.21-2.04-.41-4.07-.61-6.09,5.99-8.13,11.78-16,17.28-23.48l7.97,5.97c-7.33,9.92-15.14,20.48-23.2,31.38ZM272.84,258.06c-21.58,3.1-43.58,13.71-61.62,25.81,0,0-2.38-101.61-2.38-101.62.05.01,46.68,9.43,47.64,9.62l3.45-32.18c5.68,56.78,7.62,84.35,12.91,98.38ZM132.91,61.9c21.23-11.62,61.24-10.76,58.79-10.66,17.17.04,43.3,2.39,58.39,10.66.06.52,4.17,41.35,7.37,73.24-.02,0-65.96,13.13-65.96,13.13h0s-65.96-13.13-65.96-13.13c2.73-27.19,6.03-59.92,7.37-73.24ZM101.59,94.07c-4.18-5.69-11.26-15.32-16.97-23.12,14.31-3.53,30.09-6.61,45.32-8.73-.67,6.61-3.15,31.19-3.21,31.85h-25.14ZM256.27,94.07c-1.75-17.39-3.2-31.71-3.2-31.71,0-.04,2.95.39,2.96.43,13.16,1.95,26.27,4.5,39.28,7.64.05-.06,2.98.65,2.93.71-.13.18-.28.39-.45.61-4.79,6.53-11.45,15.6-16.38,22.32h-25.14ZM286.72,108.63l-7.98-5.97c.92-1.26,1.84-2.5,2.74-3.73l8.04,5.91c-.92,1.25-1.86,2.51-2.8,3.79ZM291.26,102.49c-1.8-1.33-6.21-4.57-8.05-5.92,0,0,2.01-2.74,2.02-2.74.3.21,7.46,5.25,8.18,5.76-2.71,3.67-.41.56-2.15,2.9ZM295.14,97.24c-.23-.16-8-5.63-8.19-5.76.09-.12,3.02-4.11,3.04-4.14.32.32,6.77,6.73,7.19,7.14-.2.27-1.87,2.52-2.05,2.77ZM298.94,92.1c-.62-.61-6.58-6.53-7.2-7.15.75-1.03,1.5-2.04,2.23-3.05l8.26,5.73c-1.08,1.46-2.18,2.95-3.3,4.46ZM303.98,85.28l-8.27-5.74c1.16-1.57,2.28-3.11,3.38-4.61l7.22,7.18c-.77,1.04-1.55,2.09-2.34,3.16ZM308.07,79.75c-.1-.1-7.14-7.1-7.23-7.19.07-.09,2.48-3.38,2.54-3.47,1.46,1.33,6.99,6.39,7.5,6.86,0,0-1.24,1.68-2.81,3.8ZM312.63,73.58c-1.97-1.8-6.24-5.7-7.51-6.87.65-.89,1.29-1.76,1.92-2.62l8.8,5.15c-.76,1.03-2.96,4-3.21,4.34ZM323.33,59.1l-1.55,2.1-9.5-4.27c1.02-1.39,1.98-2.71,2.88-3.94l8.17,6.11ZM316.89,50.64c.4-.55.79-1.08,1.16-1.58l8.21,6.09-1.19,1.61-8.18-6.12ZM320,63.61l-2.42,3.28-8.81-5.15c.6-.82,1.18-1.61,1.75-2.39l9.49,4.26ZM35.04,81.89c2.84-9.53,5.91-18.96,9.22-28.34-8.41-5.5-17-10.74-25.77-15.66,112.06-41.31,233.94-41.31,346,0-8.75,4.94-17.36,10.15-25.77,15.66,3.31,9.38,6.38,18.81,9.22,28.34-10.19-3.75-20.11-6.99-30.45-10,.12-.17,12.61-17.06,12.83-17.36l-12.92-9.57c-7.83,10.7-9.45,12.92-16.45,22.46-17.08-4.27-34.83-7.67-53.43-10.01-27.6-12.14-84.51-12.13-112.09,0-17.34,2.18-35.21,5.45-53.43,10.01-6.89-9.39-9.73-13.28-16.45-22.46l-12.92,9.57c.22.3,12.71,17.19,12.83,17.36-10.69,3.12-20.8,6.45-30.45,10ZM67.83,52.99c.9,1.23,1.86,2.55,2.88,3.94l-9.5,4.27-1.55-2.1,8.17-6.11ZM57.93,56.75l-1.19-1.61,8.21-6.09c.37.5.76,1.04,1.16,1.58l-8.18,6.12ZM65.42,66.88l-2.42-3.28,9.49-4.26c.57.78,1.15,1.57,1.75,2.39l-8.81,5.15ZM70.37,73.58c-.08-.11-3.13-4.24-3.21-4.34l8.8-5.15c.63.85,1.26,1.72,1.92,2.62-.14.13-7.38,6.74-7.51,6.87ZM72.12,75.94c.07-.07,7.5-6.86,7.5-6.86.24.33,2.3,3.14,2.54,3.47-3.59,3.57-7.1,7.06-7.23,7.19-.73-.99-2.16-2.92-2.81-3.8ZM76.69,82.12l7.23-7.18c1.1,1.5,2.23,3.04,3.38,4.61l-8.27,5.74c-.79-1.07-1.57-2.12-2.34-3.16ZM84.06,92.1c-1.12-1.51-2.22-3-3.3-4.46l8.26-5.73c.74,1,1.48,2.02,2.23,3.05,0,0-7.19,7.14-7.2,7.15ZM87.86,97.24c-.13-.18-1.57-2.13-2.04-2.77.34-.34,6.85-6.8,7.19-7.14,0,0,3.04,4.14,3.04,4.14-.3.21-7.88,5.55-8.19,5.76ZM91.75,102.49c-.15-.2-2-2.7-2.15-2.9.11-.08,7.92-5.58,8.18-5.76.04.06,1.97,2.69,2.02,2.74-.96.71-7.08,5.21-8.05,5.92ZM93.48,104.84l8.04-5.91c.9,1.23,1.82,2.47,2.74,3.73l-7.98,5.97c-.94-1.27-1.87-2.53-2.8-3.79ZM98.02,110.97l7.97-5.97c5.49,7.47,11.29,15.35,17.28,23.48-.2,2.01-.41,4.04-.61,6.09l-2.32-.46.88,8.24c-8.06-10.9-15.87-21.46-23.2-31.38ZM126.53,191.87c.19-.04,47.41-9.58,47.64-9.62-.06,2.42-2.37,101.11-2.38,101.62-17.95-12.04-39.96-22.69-61.62-25.81,5.29-13.98,7.21-41.35,12.91-98.38l3.45,32.18ZM53.11,334.58c-.36-.06-.67-.11-1.41-.24.02-.73.68-25.12.69-25.63.22.06.45.12.8.22,5.15,0,5.36,1.36,5.79,1.46-.21.87-5.88,24.19-5.88,24.19ZM56,335.06c.62-2.56,5.22-21.49,5.83-24.01,1.23.28,2.45.56,3.63.82l-6.8,23.62c-.92-.14-2-.32-2.66-.43ZM70.85,337.29c-2.81-.39-5.97-.85-9.29-1.36l6.76-23.46c1.73.36,3.41.69,5.03.99l-2.5,23.82ZM73.75,337.69l2.49-23.7c2.19.38,4.26.7,6.24.98l-6.61,22.99c-.67-.08-1.37-.18-2.12-.27ZM78.81,338.31l6.6-22.96c.65.08,1.29.15,1.92.22l-3.94,23.15c-1.39-.09-2.9-.22-4.58-.4ZM86.33,338.85l3.92-23.01c.61.05,1.2.1,1.78.13l-3.04,22.92c-.87,0-1.76-.01-2.66-.04ZM130.28,319.7c-3.5,4.8-13.21,18.11-38.34,19.13l3.01-22.7c24.3.91,28.9-7.05,47.69-31.15,3.32,1.7,6.55,3.46,9.63,5.24-3.93,5.3-18.04,24.27-22,29.48ZM200.07,307.2c0-.34-3.2-136.44-3.26-139.31.07.01,49.4,9.98,49.41,9.98,0-.05,3.11-28.97,3.13-29.2,0,0-57.79,11.5-57.85,11.52,0,0-57.84-11.51-57.85-11.52.26,2.47,2.86,26.71,3.13,29.2.1-.02,49.32-9.96,49.41-9.98,0,.01-3.26,139.2-3.26,139.31-20.99-16.2-53.95-36.33-80.52-38.22l.41-8.76c25.57,1.65,50.76,14.6,71.76,29.11.01-.52,2.56-109.41,2.59-110.67-.38.08-47.95,9.69-48.08,9.71,0,0-5.43-50.62-5.43-50.62.63.12,67.51,13.44,67.83,13.5.03,0,67.84-13.5,67.84-13.5,0,0-5.43,50.62-5.43,50.62-.11-.02-47.66-9.63-48.08-9.71.01.63,2.58,110.05,2.59,110.67,21.07-14.56,45.98-27.44,71.76-29.11l.41,8.76c-13.29.94-27.74,6.51-39.63,12.39-13.97,6.91-28.45,16.22-40.89,25.83ZM249.91,315.97c-3-4-8.79-11.75-19.2-25.76,3.09-1.78,6.31-3.55,9.63-5.24,18.29,23.46,23.09,32.09,47.7,31.17l3.01,22.7c-26.45-1.07-35.25-15-41.15-22.86ZM294.01,338.89l-3.04-22.92c.58-.04,1.18-.08,1.79-.13l3.92,23.01c-.9.03-1.79.04-2.66.04ZM299.61,338.71l-3.94-23.15c.63-.07,1.27-.14,1.92-.22l6.6,22.96c-1.49.17-3.01.3-4.58.4ZM307.13,337.96l-6.61-22.99c1.98-.28,4.06-.6,6.24-.98l2.49,23.7c-.75.1-1.46.19-2.12.27ZM312.15,337.29l-2.5-23.82c1.62-.3,3.3-.63,5.03-.99.02.06,6.76,23.46,6.76,23.46-3,.46-6.27.94-9.29,1.36ZM324.35,335.48c-.07-.25-6.76-23.46-6.8-23.62,1.18-.26,2.39-.53,3.63-.82.06.25,5.65,23.27,5.83,24.01-.87.14-1.77.29-2.66.43ZM339.76,343.53v42.39h29.44l7.96,7.96v56.15l-7.96,7.96h-34.93l-7.96-7.96v-23.26h13.44v17.77h0s23.96,0,23.96,0v-45.18h-29.44c-.21-.21-7.75-7.75-7.96-7.96v-53.28c5.06-.8,28.54-4.38,31.51-8.04h11.37l7.96,7.96v20.33h-13.44v-14.85h-23.96ZM140.4,233.08c-4.03,3.33-7.65-5.89-4.54-11.54-1.47,1.23-2.13,3.59-2.28,5.51-.47,6.87,4.14,10.88,6.81,6.04ZM176.49,134.78c-3.99,3.3-7.67-5.85-4.54-11.54-1.08.91-1.7,2.41-2.02,3.77-1.67,7.22,3.48,13.33,6.56,7.77ZM159.83,132.21c-3.99,3.31-7.68-5.86-4.53-11.56-1.37,1.14-2.33,3.62-2.33,6.51,0,.32.01.63.03.93.4,5.79,4.45,8.41,6.82,4.12ZM209.36,112.04c2.21,0,3.63-2.82,3.93-5.98.28-2.93-.38-6.14-2.25-7.7,1.65,2.98,1.42,6.93.26,9.53-1.04,2.32-2.82,3.57-4.7,2.09-.03-.02-.06-.04-.09-.06.73,1.31,1.73,2.13,2.85,2.13ZM98.37,395.38c-.02-.05-15.12-39.76-15.14-39.82h0s-19.34,0-19.34,0v105.38h19.29v-39.82l15.14,39.82h19.34v-105.38h-19.29v39.82ZM101.32,358.47h6.64s6.8,0,6.8,0v99.53h-14.26l-20.22-56.37c0,57.5,0,50.97,0,56.37h-6.76s-6.68,0-6.68,0v-99.53h14.26l20.22,56.37v-56.37ZM156.21,355.56l-9.67,9.67v86.04l9.67,9.67h34.43l9.67-9.67v-48.12h-23.96v19.29h4.67v19.22h-15.19v-66.81h15.19v14.76h19.29v-24.38l-9.67-9.67h-34.43ZM191.87,360.93c.17.17.33.33.48.48.1.1.19.19.29.29l1.98,1.98.48.48c.16.16.33.33.51.51.06.06.12.12.18.18l1.58,1.58h0v20.25h0s-6.78,0-6.78,0h-6.66v-14.76h-21.04v72.65h21.04v-25.07h-4.67v-13.44h11.33s6.78,0,6.78,0v43.99c-.17.17-.32.32-.48.48-.27.27-.63.63-1.04,1.04-.03.03-.06.06-.09.09-1.6,1.6-3.94,3.94-4.83,4.83-.08.08-.14.14-.21.21-.04.04-.07.07-.09.09h-.01s-.04.05-.04.05l-.35.35-.38.38s-.08.08-.12.12l-.06.06c-.08.08-.16.16-.26.26h-32.01l-7.96-7.96v-83.62l7.96-7.96h32.01c.43.43.83.83,1.19,1.19.08.08.21.21.38.38.31.31.6.6.88.88ZM220.17,210.34c4.27,0,5.57-10.49,1.68-13.68,3.13,5.22-.4,14.97-4.53,11.56.73,1.31,1.73,2.13,2.85,2.13ZM148.41,246.88s.05.04.07.06c1.43,1.2,3.25.94,4.56-1.43-1.28,1.06-2.51.85-3.51-.11-.02-.02-.04-.05-.07-.07-.07-.07-.13-.13-.2-.21-2.02-2.32-2.74-7.57-.77-11.16-3,2.52-3.14,10.15-.14,12.87.01.01.03.03.04.04ZM153.04,220.65c-3.99,3.31-7.67-5.85-4.54-11.54-1.55,1.29-2.2,3.81-2.3,5.83-.34,6.7,4.2,10.48,6.84,5.71ZM165.68,233.08c-4.02,3.33-7.65-5.9-4.54-11.54-1.21,1.01-1.87,2.81-2.14,4.38-1.24,7.21,3.77,12.42,6.68,7.17ZM247.13,221.52c1.07,1.94,1.28,3.99,1.11,6.18-.6,5.86-4.01,7-5.64,5.37,2.49,4.5,6.86,1.4,6.86-5.05,0-2.89-.95-5.37-2.33-6.51ZM236.14,236.48c-.34-.91-.9-1.89-1.65-2.52,3.09,5.63-.45,14.95-4.53,11.56,3.33,6.02,8.93-1.74,6.18-9.04ZM229.99,127.75c.14-2.75-.55-5.64-2.3-7.09,3.15,5.7-.52,14.85-4.53,11.56,2.29,4.13,6.49,2.04,6.83-4.46Z"/>
          <path class="cls-4" d="M245.45,220.86c-3.58,0-5.33,7.75-2.85,12.22,1.7,1.7,5.11.28,5.65-5.41.16-2.07-.13-4.36-1.12-6.14-.51-.42-1.08-.67-1.68-.67h0ZM80.26,401.64l-6.91-22.99s.18,79.34.18,79.36h6.76c0-6.21-.03-50.22-.03-56.37ZM339.76,343.53h-6.7v42.39h6.7v-42.39ZM132.02,458.02h6.8v-99.49h-6.8v99.49ZM269.31,255.89c-4.39-14.7-6.47-40.59-9.16-67.65,0,0,1.31,57.43,3.31,64.15-14.32,2.56-37.47,17.53-49.12,26.34,16.4-10.4,35.69-19.39,54.96-22.83ZM262.66,134.11l-.88,8.24c8.06-10.9,15.87-21.46,23.2-31.38l-7.97-5.97c-5.49,7.47-11.29,15.35-17.28,23.48.2,2.01.41,4.04.61,6.09l2.32-.46ZM190.6,406.07v50.77l.04-.04h0s.01-.01.01-.01c.02-.02.05-.05.09-.09l.21-.21c.24-.24.59-.59,1-1,.02-.02.05-.05.08-.08.16-.16.32-.32.5-.5.75-.75,1.78-1.78,3.25-3.25.03-.03.06-.06.09-.09.41-.41.78-.78,1.04-1.04.29-.29.46-.46.48-.48v-43.99h-6.78ZM195.44,364.49l-.32-.32-.48-.48c-.12-.12-.24-.24-.36-.36l-.05-.05c-.08-.08-.15-.15-.23-.23-.02-.02-.03-.03-.05-.05-.45-.45-.9-.9-1.32-1.32-.06-.06-.13-.13-.19-.19-.02-.02-.05-.05-.07-.07-.16-.16-.32-.32-.48-.48-.1-.1-.2-.2-.29-.29l-.08-.08s-.07-.07-.1-.1c-.01-.01-.02-.02-.03-.03-.14-.14-.27-.27-.38-.38-.12-.12-.25-.25-.38-.38,0,0-.01-.01-.02-.02v27.03h6.78v-20.25l-.53-.53c-.36-.36-.86-.86-1.42-1.42ZM214.72,358.48v41.65h6.74v-41.65h0s-6.74,0-6.74,0h0ZM249.2,458.01h6.74v-99.53h-6.74v99.53ZM221.85,221.52c-3.94-3.27-7.71,5.8-4.53,11.55,4.31,3.24,7.52-6.16,4.53-11.55ZM291.14,458.02h6.7v-86.09h-6.7v86.09ZM214.72,458.02h6.74v-44.45h-6.74v44.45ZM234.49,209.09c-4.01-3.33-7.62,5.96-4.53,11.55,3.68,3.31,7.76-5.41,4.53-11.55ZM308.97,371.92h6.7v-13.44h-6.7v13.44ZM76.04,358.47l25.29,69.32v-12.95l-20.22-56.38h-5.07ZM370.37,331.26v27.12h6.79v-20.33l-6.79-6.79ZM370.37,456.81l6.78-6.78v-56.15l-6.78-6.78v69.71ZM333.05,444.54h6.7v-17.77h-6.7v17.77ZM107.96,458.01h6.8v-99.53h-6.8v99.53ZM217.32,208.21c5.05,3.15,7.19-7.13,4.53-11.55-4.15-3.39-7.55,6.11-4.53,11.55ZM228.55,128.42c.53-2.32.4-5.12-.62-7.3-.07-.16-.15-.31-.24-.46-3.94-3.27-7.71,5.8-4.53,11.55,1.55,1.44,4.35.74,5.39-3.79ZM217.32,257.94c4.54,3.12,7.42-6.34,4.53-11.55-3.95-3.28-7.7,5.83-4.53,11.55ZM254.63,132.97c-.1-.95-5.4-53.73-6.95-69.03-12.86-6.42-33-8.86-47.37-9.43,12.44,1.06,32.98,4.92,43.86,11.77.76,7.55,10.2,65.23,10.46,66.7ZM126.53,191.87l-3.45-32.18c-5.67,56.7-7.62,84.37-12.91,98.38,21.48,3.08,43.45,13.61,61.62,25.81.01-.62,2.33-99.33,2.38-101.62-.24.05-47.47,9.59-47.64,9.62ZM160.4,197.47s.05-.06.07-.09c.04-.06.09-.11.13-.17.07-.08.14-.17.22-.25.01-.01.02-.02.03-.03.09-.09.19-.18.3-.27,4.04-3.35,7.65,5.93,4.53,11.55,0,0,0,0,0,0-.88,1.59-2.3,2.66-3.92,1.85-3.33-1.67-3.89-9.16-1.36-12.59ZM159.72,223.52c3.58-7.89,9.81,2.59,5.96,9.56,0,0,0,0,0,0-3.45,6.23-9.26-2.29-5.96-9.56ZM161.11,246.47h0c4.11-3.53,7.67,5.86,4.57,11.47,0,0,0,0,0,0-1.91,3.45-4.38,1.64-3.86,1.89-3.66-1.78-4.05-10.49-.71-13.36ZM146.21,214.75c.48-7.25,6.12-8.78,7.69-1.85.56,2.48.38,5.52-.86,7.75,0,0,0,0,0,0-2.66,4.81-7.27.92-6.83-5.9ZM146.68,237.01c.08-.25.15-.44.23-.65.07-.19.16-.39.22-.52.18-.37.33-.64.57-.99.1-.14.23-.3.29-.38.19-.22.26-.29.39-.4.03-.03.18-.15.19-.16.11-.09.29-.21.39-.27.17-.1.28-.15.46-.21.22-.08.17-.06.28-.08.18-.04.35-.06.51-.06,3.56.02,5.31,7.73,2.83,12.22,0,0,0,0,0,0-1.31,2.36-3.12,2.63-4.56,1.43-.02-.02-.05-.04-.07-.06-.01-.01-.03-.03-.04-.04-2.31-2.09-2.63-6.8-1.69-9.83ZM141.34,225.76c.45,2.39.22,5.21-.95,7.32,0,0,0,0,0,0-2.5,4.51-6.86,1.37-6.86-5.05,0-7.96,6.31-10.1,7.81-2.27ZM113.68,255.89c4.86-16.25,7.41-50.09,9.16-67.65,0,0-1.31,57.43-3.31,64.15,14.89,2.66,38.94,18.63,49.12,26.34-16.42-10.41-35.73-19.4-54.96-22.83ZM352.28,301.91c0,.62-.39,27.89-.4,28.1,3.52-1.08,3.67-1.56,4.4-2.83h0c3.65-6.41,7.02-24.18,5.13-27.38-1.14-.24-4.92.79-9.14,2.11ZM156.23,444.57h6.68v-72.65h0s-6.68,0-6.68,0v72.65ZM12.63,330.12v127.91c1.09,0,3.53.01,6.65.03v-127.91c-.22,0-6.42-.03-6.65-.03ZM234.49,233.96c-3.96-3.27-7.7,5.82-4.53,11.55,2.02,1.82,5.06-.2,5.6-4.99.3-2.69-.22-5.06-1.07-6.56ZM211.04,123.22c-3.99-3.33-7.67,5.88-4.53,11.55,1.96,1.96,5.69-.36,5.69-6.51,0-1.68-.34-3.6-1.16-5.05ZM205.63,102.26c-.02.07-.03.15-.05.22,0,.04-.01.07-.02.11-.41,2.02-.32,4.37.52,6.41,0,.02.02.04.03.06.05.12.1.25.16.37.08.16.15.32.24.47.03.02.06.04.09.07,1.88,1.48,3.66.23,4.7-2.09,1.16-2.6,1.39-6.56-.26-9.53-2.39-1.98-4.63.55-5.41,3.9ZM51.12,337.22c-.52-.07-4.4-.77-6.21-1.11-.03.09-19.27,54.7-19.3,54.79l25.17,67.11h0s6.6,0,6.6,0l-25.17-67.11c.08-.23,18.83-53.46,18.91-53.69ZM263.59,310.94c-7.09-4.74-13.13-13-23.24-25.98-3.32,1.7-6.55,3.46-9.63,5.24,9.74,13.11,15.94,21.41,19.2,25.76,5.61,7.48,14.38,21.77,41.15,22.86l-3.01-22.7c-13.48.51-19.64-1.96-24.46-5.19ZM191.5,148.27V51.24c3.93,0-36.99-1.16-58.59,10.66-.89,8.82-4.29,42.57-7.37,73.24,0,0,65.96,13.13,65.96,13.13ZM159.84,132.21s0,0,0,0c-2.2,3.98-5.89,2.04-6.7-3.04-.1-.62-.16-1.27-.16-2.01,0-7.83,6.23-10.24,7.82-2.21.46,2.31.27,5.03-.96,7.26ZM176.49,134.78s0,0,0,0c-3.17,5.73-8.61-1.01-6.38-8.43.35-1.15.93-2.35,1.85-3.11,4.01-3.35,7.68,5.87,4.54,11.54ZM177.36,102.24c.54,2.47.35,5.47-.87,7.68,0,0,0,0,0,0-2.43,4.38-6.59,1.56-6.85-4.46-.35-8.11,6.02-10.94,7.72-3.22ZM138.82,66.27c-.74,7.32-9.27,59.5-10.46,66.7.21-2.23,6.45-64.06,6.95-69.03,12.84-6.41,32.93-8.85,47.37-9.43-11.88,1.01-32.8,4.81-43.86,11.77Z"/>
        </g>
      </g>
    </g>
  </g>
</svg>